<svg id="Camada_1" data-name="Camada 1" xmlns="http://www.w3.org/2000/svg" viewBox="0 0 542.53 374.97"><defs><style>.cls-1,.cls-15,.cls-18,.cls-19{fill:#005cfb;}.cls-1,.cls-2,.cls-20,.cls-6{stroke:#5a96fc;}.cls-1,.cls-14,.cls-18,.cls-21,.cls-4,.cls-5,.cls-6,.cls-8{stroke-miterlimit:10;}.cls-11,.cls-16,.cls-2,.cls-20,.cls-21,.cls-4,.cls-5,.cls-6,.cls-8{fill:none;}.cls-11,.cls-12,.cls-16,.cls-19,.cls-2,.cls-20{stroke-linecap:round;stroke-linejoin:round;}.cls-3{fill:#5a96fc;}.cls-4{stroke:#005cfb;}.cls-16,.cls-18,.cls-19,.cls-5{stroke:#fff;}.cls-12,.cls-14,.cls-7{fill:#fff;}.cls-8{stroke:#b3cefd;}.cls-9{fill:#b3cefd;}.cls-10{fill:#ff7e1a;}.cls-11,.cls-12,.cls-14,.cls-21{stroke:#000;}.cls-13{fill:#ffe873;}.cls-17{fill:#ffb8a0;}.cls-20{stroke-width:2px;}</style></defs><path class="cls-1" d="M194.36,273.92l21.18-.19a4.27,4.27,0,0,0,4.23-4.32l-.19-21.59a4.27,4.27,0,0,0-4.32-4.23l-18.33.16,0,3.3.22,23.68A3.07,3.07,0,0,1,194.36,273.92Z" transform="translate(-79.19 -62.15)"/><path class="cls-1" d="M197.18,270.73a3.07,3.07,0,0,1-2.82,3.19s-3,.35-3-3.13l3.79,0A13.74,13.74,0,0,1,197.18,270.73Z" transform="translate(-79.19 -62.15)"/><line class="cls-2" x1="137.09" y1="206.63" x2="122.17" y2="206.77"/><line class="cls-2" x1="137.06" y1="203.27" x2="122.14" y2="203.41"/><line class="cls-2" x1="136.98" y1="194.71" x2="122.06" y2="194.85"/><line class="cls-2" x1="136.95" y1="191.36" x2="122.03" y2="191.49"/><line class="cls-2" x1="137.02" y1="198.99" x2="122.1" y2="199.13"/><rect class="cls-3" x="200.79" y="247.3" width="10.46" height="2.73" rx="1.36" transform="translate(335.11 433.3) rotate(179.48)"/><rect class="cls-3" x="355.46" y="247.36" width="36.29" height="31.59" rx="3.81"/><line class="cls-4" x1="363.43" y1="263.36" x2="363.43" y2="274.08"/><line class="cls-4" x1="367.42" y1="263.36" x2="367.42" y2="274.08"/><line class="cls-4" x1="370.99" y1="265.25" x2="370.99" y2="274.08"/><line class="cls-4" x1="374.35" y1="271.98" x2="374.35" y2="274.08"/><line class="cls-4" x1="378.35" y1="266.09" x2="378.35" y2="274.08"/><line class="cls-4" x1="381.71" y1="253.7" x2="381.71" y2="274.08"/><line class="cls-4" x1="385.28" y1="253.7" x2="385.28" y2="274.08"/><path class="cls-5" d="M440.06,328.49c2-4,4.3-5.65,6.13-4.87,4.42,1.89,5.89,9.45,8.41,9.24,5.43-.45,1-17,10.08-17.85" transform="translate(-79.19 -62.15)"/><line class="cls-6" x1="199.76" y1="305.83" x2="199.79" y2="299.17"/><line class="cls-6" x1="208.34" y1="305.87" x2="208.39" y2="291.58"/><line class="cls-6" x1="215.64" y1="305.9" x2="215.7" y2="290.65"/><line class="cls-6" x1="223.9" y1="305.93" x2="223.98" y2="285.29"/><line class="cls-6" x1="231.2" y1="305.96" x2="231.31" y2="277.66"/><line class="cls-6" x1="237.55" y1="305.98" x2="237.69" y2="270.41"/><rect class="cls-6" x="260.7" y="321.67" width="70.72" height="55.65" rx="3.99" transform="matrix(1, 0, 0, 1, -77.81, -63.31)"/><path class="cls-5" d="M273.24,366.23l17-15.32a1.86,1.86,0,0,1,2.57.06l2.35,2.34a1.86,1.86,0,0,0,2.69-.07L316.36,333" transform="translate(-79.19 -62.15)"/><path class="cls-5" d="M269.2,327.29,269,367.35a3.45,3.45,0,0,0,3.43,3.46l48.88.19" transform="translate(-79.19 -62.15)"/><path class="cls-7" d="M317.52,333.85l-2.64-2.05a.41.41,0,0,1,.08-.7l3.36-1.61a.42.42,0,0,1,.59.45l-.73,3.66A.42.42,0,0,1,317.52,333.85Z" transform="translate(-79.19 -62.15)"/><path class="cls-3" d="M537.49,182.74H479.22l-9.05,7-.57-7H455a4,4,0,0,1-4-4V162.85a4,4,0,0,1,4-4h82.5a4,4,0,0,1,4,4v15.92A4,4,0,0,1,537.49,182.74Z" transform="translate(-79.19 -62.15)"/><line class="cls-8" x1="407.96" y1="112.61" x2="456.65" y2="112.61"/><line class="cls-8" x1="407.96" y1="108.08" x2="456.65" y2="108.08"/><line class="cls-8" x1="407.96" y1="103.26" x2="456.65" y2="103.26"/><rect class="cls-9" x="376.94" y="100.17" width="25.56" height="16.98" rx="1.78"/><path d="M199.65,339.77c-3,1-3.16,4.9-1.85,9.51s10.64,22.36,14.74,21.7-2-21.81-2-21.81Z" transform="translate(-79.19 -62.15)"/><path d="M263.44,317.66c-2.61,1.83-1.63,5.6.93,9.64s16.57,18.41,20.32,16.61-8.14-20.34-8.14-20.34Z" transform="translate(-79.19 -62.15)"/><path class="cls-10" d="M249.35,281.4s20.69,4.41,22.16,13.07c1.23,7.26-8.38,22.95-8.38,22.95s16.5,13.74,17.79,13.63c1.76-1,7.22-6.65,11.56-14.75,4.55-8.52,7.87-19.73,4.33-31.05-8.42-26.91-35.8-29.16-35.8-29.16Z" transform="translate(-79.19 -62.15)"/><path class="cls-11" d="M280.92,331.05c1.76-1,7.22-6.65,11.56-14.75,4.55-8.52,7.87-19.73,4.33-31.05-8.42-26.91-35.8-29.16-35.8-29.16" transform="translate(-79.19 -62.15)"/><path class="cls-11" d="M249.35,281.4s20.69,4.41,22.16,13.07c1.23,7.26-8.38,22.95-8.38,22.95" transform="translate(-79.19 -62.15)"/><path class="cls-10" d="M263,260.21c0,4.33-8.4,18.72-12.65,21.84,0,0,.79,26.71-6.75,45.14s-24.69,28.29-28.22,29.24c0,0-7.88-1.21-12.51-7.84s-2.13-12-2.13-12,12-10.78,13.4-13.18c4.67-8.31,3.32-57.27,3.32-57.27s15.09,1,25.63-.63A107.83,107.83,0,0,0,263,260.21Z" transform="translate(-79.19 -62.15)"/><path class="cls-11" d="M200.74,336.54s12-10.78,13.4-13.18c4.67-8.31,3.32-57.27,3.32-57.27" transform="translate(-79.19 -62.15)"/><path class="cls-12" d="M250.76,195.64c6.52-2.47,17.44-5.22,24.57-15.43,6.33-9.06,10.24-23.13,14.14-34.36,3.51-10.08,4.9-10.7,5.86-10.49s.91,5.64.27,7.46c0,0,2.46-6.24,3.53-6.24s1.34,4.22.34,7.58c0,0,2.64-5.13,4.14-4.92.89.12-.51,6.23-.51,6.23s2.9-5.48,3.68-3.57c.59,1.45-1.66,9.93-1.66,9.93s-4.94,26.71-13.84,40c-6.81,10.18-14.63,16.51-27.43,20.6C263.27,212.61,250.76,195.64,250.76,195.64Z" transform="translate(-79.19 -62.15)"/><path class="cls-13" d="M248.33,195.74a56.24,56.24,0,0,0,8.46-3.23c5.3-2.69,10.86-6.11,10.86-6.11S276.59,201.91,278,209c0,0-11.22,7.25-15.9,6.13Z" transform="translate(-79.19 -62.15)"/><path class="cls-13" d="M247.14,196.08c2.37-1.2,3.62-.44,3.62-.44s11.15,11.94,14.92,20.19,10.18,29.71,10.21,39.81c0,0-24.57,14.15-58.49,10.74,0,0,.4-60.58,5-63.61C224.29,201.55,247.14,196.08,247.14,196.08Z" transform="translate(-79.19 -62.15)"/><path d="M220,236.62c-.38,3.77,14.68,18.44,22.95,18.82s28.22-4.89,30.48-10.54c0,0-26.71,5.27-38.38-.37S220,236.62,220,236.62Z" transform="translate(-79.19 -62.15)"/><path class="cls-14" d="M209.59,219.08c.27,5.9,7.27,22,23.68,28.58,10,4,23.85,4.8,42.8-3,.61-.25,7.68-2.71,9.54-5.34s-4.51-.35-3.74-.71a32.25,32.25,0,0,0,3.62-1.82c1.5-1,3.06-2.78,1.46-3.31s-5.13,1.12-5.13,1.12,5.79-2.93,4.72-4.53-6.94.94-6.94.94,6.73-3.52,4.67-4.76c-1.18-.71-3.69.33-5.38.92-2.53.88-5.14,2.27-7,3,0,0,4.27-5,2.5-5.52s-7.78,5.47-9,6.6-22.43,2.72-29.45-6-7.18-11.45-9.75-12.73S209.19,210.48,209.59,219.08Z" transform="translate(-79.19 -62.15)"/><path class="cls-13" d="M216.44,237.64s11.66-8.38,19.6-12.11c0,0-8.46-13.53-8.7-24.31,0,0-10.77,2.25-14.85,8.19C208.81,214.75,204.4,223.53,216.44,237.64Z" transform="translate(-79.19 -62.15)"/><path class="cls-14" d="M251.1,187.54c2.06-4.9-7.16-17.62-9.61-20.5s-10.89-.79-14.88,2.78-5.31,12.9-5.31,12.9l2.14,2.73a2.67,2.67,0,0,0-.52,1.9c.15,1.6,2.9,4.07,5.58,4.56l2.73,3.49-.08,5.06s1.79,9.46,12.75,6.31c8.77-2.52,4.27-8.91,4-9.68l-.39-5.55A10.68,10.68,0,0,0,251.1,187.54Z" transform="translate(-79.19 -62.15)"/><path d="M226.5,185.06s2.19,2.22,3.35,1.85a2.28,2.28,0,0,0,1.33-2.68c-.24-1.91-5.35-7.37-5.35-7.37s.19-6.15,8.36-9.33c5.17-2,6.31-.52,6.31-.52s5.68-8.67,2.82-12.33-8.27-3.19-13.23,1.46c-3.88,3.64-8.32,8.78-8.07,13.17,0,0-5.09.22-5.93,4.17s3.11,5.2,3.11,5.2-3.1-.31-2.93,2.21,3.48,7.93,8,7.35Z" transform="translate(-79.19 -62.15)"/><path class="cls-3" d="M341.69,246.28c-9.15,2.95-30.21,18.83-13.95,64.42a2.26,2.26,0,0,0,3.84.7c4-4.73,10.09-18.11,27.09-24.79Z" transform="translate(-79.19 -62.15)"/><path class="cls-3" d="M391.77,230.68c9.56-1,39.08,3.19,42.8,51.44a2.25,2.25,0,0,1-3.21,2.21c-5.6-2.69-17.86-7.2-36.11-6.36Z" transform="translate(-79.19 -62.15)"/><path class="cls-15" d="M359.83,293.72a316.78,316.78,0,0,1-37.34-72.45C312.1,192,308.14,165.14,310.7,141.41c5-46,17-61.66,20.06-62a1.4,1.4,0,0,1,.38,0c2.44,0,19.92,8,44,45.86,25.31,39.8,27.57,79.66,23.21,159.65l0,.37L360,294Z" transform="translate(-79.19 -62.15)"/><path class="cls-7" d="M331.14,79.83c2.82,0,20.39,9.14,43.6,45.63,25.63,40.31,27.4,81,23.13,159.35l-37.63,8.63c-28.5-41.32-54.56-100.91-49.05-152,5.17-47.85,17.83-61.59,19.68-61.59a.64.64,0,0,1,.27,0m0-1a1.66,1.66,0,0,0-.51.07c-1.93.35-5.64,4.95-9.27,13.43-3.58,8.33-8.42,23.59-11.16,49-2.57,23.8,1.41,50.75,11.82,80.08A317.85,317.85,0,0,0,359.41,294l.39.56.66-.15,37.63-8.64.74-.16,0-.76c4.37-80.1,2.1-120-23.29-159.93-22.37-35.18-40.4-46.1-44.44-46.1Z" transform="translate(-79.19 -62.15)"/><path class="cls-5" d="M355.67,287.82s26.13-9.62,43.25-10.22" transform="translate(-79.19 -62.15)"/><path class="cls-3" d="M374.74,125.46c-24.05-38.07-42.22-46.34-43.87-45.59-1.61,0-12.14,10.33-17.61,44.6-.82,5.12-1.52,10.77-2.07,17a88.22,88.22,0,0,0,14.19-.29A115.2,115.2,0,0,0,343.69,138C365.45,132.42,374.74,125.46,374.74,125.46Z" transform="translate(-79.19 -62.15)"/><path class="cls-3" d="M368.33,229.13c-3.34-4.33,1.47,34,6.44,55.65,2.38,10.32,7.37,16.37,8.28,16.47s2.14-6.86.4-17.66C381.45,271.16,374.75,237.46,368.33,229.13Z" transform="translate(-79.19 -62.15)"/><circle class="cls-3" cx="272.68" cy="113.22" r="21.94"/><path class="cls-16" d="M345.33,160.35s15.61-4.51,22.2,7.28" transform="translate(-79.19 -62.15)"/><path class="cls-11" d="M290.27,151.26s1.48-6.21,3-6.51,2.62,7.39.84,9.75" transform="translate(-79.19 -62.15)"/><path class="cls-11" d="M267.65,186.4S277.35,203.52,278,209" transform="translate(-79.19 -62.15)"/><path class="cls-11" d="M227.46,213.83c2.39,3.59,6.58,8.07,8.58,11.7l-19.6,12.11" transform="translate(-79.19 -62.15)"/><path class="cls-11" d="M248.33,195.74c3.29,2.37,12.55,9.72,16.92,18.81" transform="translate(-79.19 -62.15)"/><path class="cls-11" d="M217.4,266.38s28.1,4.92,58.49-10.74" transform="translate(-79.19 -62.15)"/><path class="cls-11" d="M229,202.47s4.48,13.45,20.33,4.49" transform="translate(-79.19 -62.15)"/><path class="cls-17" d="M280.92,218.94" transform="translate(-79.19 -62.15)"/><path class="cls-11" d="M250.35,282.05c-.14.09,4.16-6.13,4.16-6.13a15.18,15.18,0,0,0,5.82-13.34" transform="translate(-79.19 -62.15)"/><path class="cls-11" d="M215.38,356.43s22-9,28.22-29.24a164.76,164.76,0,0,0,7-37.71" transform="translate(-79.19 -62.15)"/><path class="cls-18" d="M365.8,291.83s24.08,85.09,24.78,99.31" transform="translate(-79.19 -62.15)"/><path class="cls-18" d="M392.86,286.28s13.2,45.63,18.4,54.65" transform="translate(-79.19 -62.15)"/><path class="cls-18" d="M383.86,412c-13.51-8.68-.79-28.13,13.05-18.89" transform="translate(-79.19 -62.15)"/><path class="cls-18" d="M387.14,308.81s22.26,74.75,33.1,91.23" transform="translate(-79.19 -62.15)"/><path class="cls-11" d="M609.88,374.83" transform="translate(-79.19 -62.15)"/><path d="M517.93,283.8l13.52,19.14a32.62,32.62,0,0,0,25.47,14,18.18,18.18,0,0,0,6.43-.68c1.94-.72,2.09,2.15,4.38,3.75,0,0,11.59,9.9,4.84,13.48-8.76,4.64-31.78,6.3-40.8,2.86-15.8-6-22-18.23-24.86-23.58a34.07,34.07,0,0,0-4.05-6.08Z" transform="translate(-79.19 -62.15)"/><path d="M466.39,300s17.57,39.3,30.91,49.59c11.44,8.83,30.95,12.43,38.6,10.53l-3.38-16.28,4.71-4.63s-3.6-.65-8.05-1.71a33,33,0,0,1-20.71-15.26l-5-8.37s22.26-15.41,13.67-31.21L487.7,295.24Z" transform="translate(-79.19 -62.15)"/><path class="cls-12" d="M502.76,206.27l-1.72-2.6s-8.91-1.59-8.32-3.37,5.75-1.59,5.75-1.59-5-6.73-5-9.11,4.16-.79,5.15.79c0,0,6.62-3.51,10.95-1.24,3.77,2,8.14,11.53,8.14,11.53Z" transform="translate(-79.19 -62.15)"/><path class="cls-12" d="M397.55,231c-2.78-4.56-5.07-11.61-3.68-15s11.23-7.38,11.23-7.38-1-4,.39-6.14S411.77,215.1,414,222Z" transform="translate(-79.19 -62.15)"/><path class="cls-12" d="M473.29,226.89l.39-6.7s-6-6.54-11-7.16-12.68,2.28-13,5.83-.05,15.41,4.18,18.1a17.56,17.56,0,0,0,5.45,2c.51,1.09,2.22,4.73,3.27,5.61,1.41,1.17,16.08-6,16.31-6.72S476.3,234.7,473.29,226.89Z" transform="translate(-79.19 -62.15)"/><path d="M453.44,219.23c-2.52-.88-10.19-2.09-9-4.93s3.76-9.12,11.1-7.48,17.82,4.85,17.71,9.34c0,0,.66-2,2.63-.22s2.91,16.38,1.71,19-10.29,5.15-12.91,4.44-4.79-1.43-6-4.61l-.87-7.23s-2.74-.11-3.4-1.86A35,35,0,0,1,453.44,219.23Z" transform="translate(-79.19 -62.15)"/><path class="cls-10" d="M502,251.58l-.77-1.26c4.88-2.82,14.45-8.83,18-14.54,5.62-9,.11-37.95-2.14-37.75-3.08.28-16.35,6.08-16.35,6.08.57,1.15,3.26,18,2.74,18.66-1.78,2.38-13.75,8.76-13.75,8.76S466,242.47,457.41,245.35c-11.84,4-15.66,4-24.09-1.1-7-4.26-19-22.44-19-22.44-6.74,2.31-15.91,7.3-16.77,9.16,0,0,2.69,9.13,14,23.13,17.19,21.33,42,18.48,42,18.48,4.14,9.15,18.39,40.86,18.39,40.86,14.17.53,49-24.77,49-24.77Z" transform="translate(-79.19 -62.15)"/><path class="cls-11" d="M398.66,234.58s13.17,27.9,33.94,35.31c9.6,3.43,20.93,2.69,20.93,2.69" transform="translate(-79.19 -62.15)"/><path class="cls-12" d="M457.82,227.55c1.79-3.39,3.91-1.28,3.7,1s-1.49,6.77-3.18,5.92" transform="translate(-79.19 -62.15)"/><path class="cls-13" d="M534.06,339c-2.69,1-7.27,4.54-6,8.73s5.88,13.26,8,15.17,5.7,5.74,9.89,4.44,4.83-6.9,4.64-8.37c-.74-5.76-6.52-15.4-10.25-18.76C537.64,337.74,535.58,338.48,534.06,339Z" transform="translate(-79.19 -62.15)"/><path class="cls-13" d="M561.65,317.28c-3.44,1.9,15.39,27.22,20.49,22.8,7-6-2.92-19.52-8.45-26a5,5,0,0,0-7.17-.71Z" transform="translate(-79.19 -62.15)"/><path class="cls-11" d="M397.55,231s10.62-8.54,20.46-10.39" transform="translate(-79.19 -62.15)"/><path class="cls-11" d="M499.79,205.21A135,135,0,0,1,517.12,198" transform="translate(-79.19 -62.15)"/><path class="cls-11" d="M499.73,225.07s8.36-5.1,12.36-2.33" transform="translate(-79.19 -62.15)"/><path class="cls-11" d="M495.49,239.34c.61.92,25.44,49.33,25.44,49.33" transform="translate(-79.19 -62.15)"/><path class="cls-11" d="M414.62,256.87s3.39-1.85,8.3.61c7.18,3.59,5.23,9.84,5.23,9.84" transform="translate(-79.19 -62.15)"/><path class="cls-11" d="M516.4,238.42s-4.62-10.15,4.92-12" transform="translate(-79.19 -62.15)"/><path class="cls-11" d="M540.41,340.23c-3.41-.65-9.25,4.57-7.41,8s7.59,18.36,13,19.17" transform="translate(-79.19 -62.15)"/><line class="cls-11" x1="458.11" y1="286.35" x2="465.49" y2="281.73"/><line class="cls-11" x1="459.96" y1="289.73" x2="467.34" y2="285.12"/><line class="cls-11" x1="462.42" y1="293.42" x2="469.8" y2="288.81"/><line class="cls-11" x1="463.96" y1="297.41" x2="471.33" y2="292.8"/><path class="cls-11" d="M533.92,359.87s-7.07,9.53-2.46,8,3.08-7.68,3.08-7.68" transform="translate(-79.19 -62.15)"/><path class="cls-11" d="M566.52,313.33c-1.23.73,12.5,26.34,15.62,26.75" transform="translate(-79.19 -62.15)"/><line class="cls-11" x1="492.55" y1="254.68" x2="495.93" y2="251.91"/><line class="cls-11" x1="494.7" y1="258.37" x2="498.09" y2="255.6"/><line class="cls-11" x1="496.55" y1="262.06" x2="499.93" y2="259.29"/><line class="cls-11" x1="498.39" y1="265.75" x2="501.77" y2="262.98"/><line class="cls-11" x1="500.54" y1="269.43" x2="503.93" y2="266.67"/><path class="cls-11" d="M570.51,335c0,6.46,1.23,7.38,2.46,6.46s-.31-5.84-.31-5.84" transform="translate(-79.19 -62.15)"/><path class="cls-11" d="M457,242.49s1.13,2.26,9.61-.19,13.39-6.41,13.77-9.24" transform="translate(-79.19 -62.15)"/><rect class="cls-6" x="401.49" y="108.81" width="26.7" height="37.37" rx="2.38" transform="translate(463.15 -349.5) rotate(90)"/><path class="cls-3" d="M433.53,116.53a2.39,2.39,0,0,0-2.38-2.39H398.54a2.39,2.39,0,0,0-2.38,2.39v1.74h37.29Z" transform="translate(-79.19 -62.15)"/><rect class="cls-3" x="321.07" y="59.08" width="13.69" height="11.98" rx="1.45"/><line class="cls-2" x1="337.31" y1="59.94" x2="350.74" y2="59.94"/><line class="cls-2" x1="337.31" y1="63.43" x2="350.74" y2="63.43"/><line class="cls-2" x1="337.31" y1="67.29" x2="350.74" y2="67.29"/><line class="cls-2" x1="337.31" y1="70.78" x2="350.74" y2="70.78"/><line class="cls-2" x1="321.7" y1="74.27" x2="350.74" y2="74.27"/><rect class="cls-6" x="162.68" y="296.27" width="17.07" height="34.75" rx="1.52" transform="translate(405.67 80.28) rotate(90)"/><path class="cls-3" d="M188.59,306.63a1.52,1.52,0,0,0-1.53-1.52h-31.7a1.52,1.52,0,0,0-1.52,1.52v1.12h34.7Z" transform="translate(-79.19 -62.15)"/><rect class="cls-3" x="77.27" y="247.49" width="8.75" height="7.66" rx="0.92"/><line class="cls-2" x1="87.65" y1="248.04" x2="107.1" y2="248.04"/><line class="cls-2" x1="87.65" y1="250.27" x2="107.1" y2="250.27"/><line class="cls-2" x1="87.65" y1="252.74" x2="107.1" y2="252.74"/><line class="cls-2" x1="87.65" y1="254.97" x2="107.1" y2="254.97"/><line class="cls-2" x1="77.67" y1="257.2" x2="107.1" y2="257.2"/><rect class="cls-6" x="151.85" y="98.03" width="17.89" height="25.04" rx="1.6" transform="translate(192.16 -112.39) rotate(90)"/><path class="cls-3" d="M173.32,103.2a1.6,1.6,0,0,0-1.6-1.59H149.87a1.59,1.59,0,0,0-1.59,1.59v1.17h25Z" transform="translate(-79.19 -62.15)"/><rect class="cls-3" x="71.83" y="44.21" width="9.17" height="8.02" rx="0.97"/><line class="cls-2" x1="82.72" y1="44.78" x2="91.72" y2="44.78"/><line class="cls-2" x1="82.72" y1="47.12" x2="91.72" y2="47.12"/><line class="cls-2" x1="82.72" y1="49.71" x2="91.72" y2="49.71"/><line class="cls-2" x1="82.72" y1="52.05" x2="91.72" y2="52.05"/><line class="cls-2" x1="72.25" y1="54.38" x2="91.72" y2="54.38"/><circle class="cls-7" cx="299.95" cy="38.03" r="1.3"/><circle class="cls-7" cx="44.1" cy="199.22" r="1.3"/><circle class="cls-7" cx="461.23" cy="352.94" r="1.3"/><circle class="cls-7" cx="281.81" cy="294.12" r="1.3"/><circle class="cls-7" cx="364.96" cy="9.43" r="1.3"/><circle class="cls-7" cx="1.3" cy="275.33" r="1.3"/><circle class="cls-7" cx="183.8" cy="83.4" r="1.3"/><circle class="cls-7" cx="511.95" cy="95.48" r="1.3"/><circle class="cls-7" cx="521.33" cy="211.2" r="1.3"/><line class="cls-19" x1="513.75" y1="6.57" x2="513.75" y2="0.5"/><line class="cls-19" x1="510.72" y1="3.53" x2="516.78" y2="3.53"/><line class="cls-19" x1="92.73" y1="137" x2="92.73" y2="130.93"/><line class="cls-19" x1="89.69" y1="133.97" x2="95.76" y2="133.97"/><line class="cls-19" x1="36.34" y1="40.46" x2="36.34" y2="34.39"/><line class="cls-19" x1="33.31" y1="37.43" x2="39.38" y2="37.43"/><circle class="cls-20" cx="149.92" cy="330.93" r="5.65"/><line class="cls-20" x1="153.67" y1="335.98" x2="158.53" y2="342.2"/><path class="cls-18" d="M379.21,407.3c-3.35-3.36-12.46-.48-12,5.75" transform="translate(-79.19 -62.15)"/><line class="cls-5" x1="536.91" y1="249.72" x2="542.53" y2="249.72"/><line class="cls-5" x1="388.61" y1="301.24" x2="394.22" y2="301.24"/><line class="cls-5" x1="112.83" y1="83.17" x2="118.44" y2="83.17"/><line class="cls-5" x1="507.61" y1="145.45" x2="513.22" y2="145.45"/><line class="cls-2" x1="477.27" y1="44.55" x2="486.53" y2="44.55"/><line class="cls-2" x1="65.67" y1="95.44" x2="65.67" y2="100.64"/><line class="cls-2" x1="43.08" y1="309.72" x2="43.08" y2="314.92"/><line class="cls-2" x1="407.83" y1="326.93" x2="417.09" y2="326.93"/><path class="cls-7" d="M186.35,382.57" transform="translate(-79.19 -62.15)"/><line class="cls-19" x1="457.77" y1="90.97" x2="457.77" y2="87.25"/><line class="cls-19" x1="465.68" y1="97.48" x2="469.86" y2="97.48"/><line class="cls-19" x1="462.89" y1="93.3" x2="466.61" y2="89.58"/><path class="cls-19" d="M535,92.64a11.91,11.91,0,1,1-11.91-11.91V92.64Z" transform="translate(-79.19 -62.15)"/><path class="cls-3" d="M539.12,88.69a11.9,11.9,0,0,0-11.91-11.9v11.9S539.12,89,539.12,88.69Z" transform="translate(-79.19 -62.15)"/><polyline class="cls-2" points="439.88 35.7 431.36 44.23 415.32 44.23"/><rect class="cls-3" x="472.38" y="7.66" width="7.56" height="6.34" rx="0.9"/><rect class="cls-3" x="404.83" y="40.99" width="7.56" height="6.34" rx="0.9"/><polyline class="cls-2" points="459.96 15.87 464.61 11.21 469.27 11.21"/><path class="cls-6" d="M556.36,278.63H536a4.11,4.11,0,0,1-4.11-4.1V253.77a4.1,4.1,0,0,1,4.11-4.1h17.62v25.92A2.94,2.94,0,0,0,556.36,278.63Z" transform="translate(-79.19 -62.15)"/><path class="cls-6" d="M553.62,275.59a2.94,2.94,0,0,0,2.74,3s2.85.31,2.85-3h-3.64A14.1,14.1,0,0,0,553.62,275.59Z" transform="translate(-79.19 -62.15)"/><line class="cls-2" x1="456.05" y1="211.74" x2="470.39" y2="211.74"/><line class="cls-2" x1="456.05" y1="208.51" x2="470.39" y2="208.51"/><line class="cls-2" x1="456.05" y1="200.28" x2="470.39" y2="200.28"/><line class="cls-2" x1="456.05" y1="197.06" x2="470.39" y2="197.06"/><line class="cls-2" x1="456.05" y1="204.4" x2="470.39" y2="204.4"/><rect class="cls-3" x="460.71" y="191.01" width="10.06" height="2.62" rx="1.31"/><circle class="cls-19" cx="474.05" cy="202.37" r="3.07"/><line class="cls-16" x1="476.09" y1="205.11" x2="478.73" y2="208.49"/><path class="cls-18" d="M449.93,414.88c1.06-5.31,8.51-12.82,17.5-10.08,12.21,3.71,8.49,16.44,8.49,16.44" transform="translate(-79.19 -62.15)"/><path class="cls-18" d="M469,425.49s5.83-7.43,13.26-5.84" transform="translate(-79.19 -62.15)"/><line class="cls-19" x1="360.13" y1="323.3" x2="360.13" y2="317.24"/><line class="cls-19" x1="357.1" y1="320.27" x2="363.17" y2="320.27"/><path class="cls-16" d="M333.47,83.94A119.55,119.55,0,0,1,352,100.87" transform="translate(-79.19 -62.15)"/><path class="cls-16" d="M355.5,105.51s5.11,5.8,7.66,9" transform="translate(-79.19 -62.15)"/><circle class="cls-10" cx="212.13" cy="58.6" r="14.41"/><path class="cls-5" d="M290.59,127.25l4.69-1.66a.67.67,0,0,0,.43-.81,5.33,5.33,0,0,1,.17-3.21c1-2.9,1.07-6.46-1.37-8.36a6.41,6.41,0,0,0-10.2,5.66c.3,3.75,3.56,5.07,4.1,5.38A7.12,7.12,0,0,1,290.59,127.25Z" transform="translate(-79.19 -62.15)"/><path class="cls-5" d="M291.71,126.49l-2.12-5.88.49.12a1.93,1.93,0,0,0,2-.61l.39-.45,2.11,5.84" transform="translate(-79.19 -62.15)"/><path class="cls-5" d="M290.59,127.25l.62,1.81c.23.67,1.22.92,2.22.56l1.79-.65c1-.35,1.59-1.17,1.35-1.83l-.64-1.79Z" transform="translate(-79.19 -62.15)"/><circle class="cls-13" cx="338.48" cy="126.46" r="14.41"/><path class="cls-21" d="M417.62,195.65l4.69-1.66a.67.67,0,0,0,.43-.81,5.33,5.33,0,0,1,.17-3.21c1-2.9,1.07-6.46-1.37-8.36a6.41,6.41,0,0,0-10.2,5.66c.3,3.75,3.56,5.07,4.1,5.38A7.12,7.12,0,0,1,417.62,195.65Z" transform="translate(-79.19 -62.15)"/><path class="cls-21" d="M418.74,194.89,416.62,189l.49.12a1.93,1.93,0,0,0,2-.61l.39-.45,2.11,5.84" transform="translate(-79.19 -62.15)"/><path class="cls-21" d="M417.62,195.65l.62,1.81c.23.66,1.22.92,2.22.56l1.79-.65c1-.35,1.59-1.17,1.35-1.83l-.64-1.79Z" transform="translate(-79.19 -62.15)"/><path class="cls-18" d="M396.07,436.54a14.24,14.24,0,0,1,10.63-10.63c9-2.13,16.49,10.63,16.49,10.63" transform="translate(-79.19 -62.15)"/><path class="cls-6" d="M235.39,123.41h-11.3a1.54,1.54,0,0,1-1.53-1.54v-11.3a1.54,1.54,0,0,1,1.53-1.53h2.29s-.79,4.88,3.28,4.88c3.42,0,2.77-4.88,2.77-4.88h3a1.54,1.54,0,0,1,1.54,1.53v3.09s4.57-.79,4.57,3c0,3.42-4.57,3.16-4.57,3.16v2A1.54,1.54,0,0,1,235.39,123.41Z" transform="translate(-79.19 -62.15)"/><path class="cls-6" d="M314,436.62h-11.3a1.54,1.54,0,0,1-1.54-1.53v-11.3a1.54,1.54,0,0,1,1.54-1.54H305s-.79,4.89,3.29,4.89c3.42,0,2.76-4.89,2.76-4.89h3a1.54,1.54,0,0,1,1.53,1.54v3.08s4.57-.78,4.57,3c0,3.42-4.57,3.15-4.57,3.15v2A1.54,1.54,0,0,1,314,436.62Z" transform="translate(-79.19 -62.15)"/><path class="cls-6" d="M591,355.84h11.3a1.53,1.53,0,0,1,1.53,1.53v11.3a1.53,1.53,0,0,1-1.53,1.53H600s.79-4.88-3.28-4.88c-3.42,0-2.77,4.88-2.77,4.88h-3a1.53,1.53,0,0,1-1.54-1.53v-3.09s-4.57.79-4.57-3c0-3.42,4.57-3.15,4.57-3.15v-2A1.53,1.53,0,0,1,591,355.84Z" transform="translate(-79.19 -62.15)"/><path class="cls-7" d="M469.62,131.82l1.73,0a.37.37,0,0,0,.36-.37l0-2.51a.37.37,0,0,0-.37-.36l-1.78,0a7.57,7.57,0,0,0-1-2.25l1.27-1.34a.36.36,0,0,0,0-.51l-1.82-1.73a.36.36,0,0,0-.51,0l-1.32,1.39a7.22,7.22,0,0,0-2-.77v-2a.37.37,0,0,0-.37-.36h-2.51a.36.36,0,0,0-.36.36v2a7.3,7.3,0,0,0-2.23,1L457.1,123a.36.36,0,0,0-.51,0l-1.74,1.81a.36.36,0,0,0,0,.51l1.49,1.42a7.19,7.19,0,0,0-.83,2.07l-2,0a.37.37,0,0,0-.36.37l0,2.51a.37.37,0,0,0,.37.36l2,0a6.85,6.85,0,0,0,.94,2.26l-1.32,1.39a.36.36,0,0,0,0,.51l1.82,1.73a.35.35,0,0,0,.51,0l1.28-1.34a7.16,7.16,0,0,0,2.07.87v1.81a.36.36,0,0,0,.36.36h2.51a.37.37,0,0,0,.37-.36v-1.76a7.22,7.22,0,0,0,2.44-1l1.23,1.18a.36.36,0,0,0,.51,0l1.74-1.81a.36.36,0,0,0,0-.51l-1.23-1.18A7.1,7.1,0,0,0,469.62,131.82Zm-2.89.38a4.6,4.6,0,0,1-2.24,2.34l-.43.18a4.8,4.8,0,0,1-1.52.25,4.66,4.66,0,0,1-1.72-.33l-.17-.08a4.54,4.54,0,0,1-2.27-2.3l-.1-.27a4.45,4.45,0,0,1-.28-1.56,4.64,4.64,0,0,1,.32-1.67.42.42,0,0,0,0-.1,4.62,4.62,0,0,1,2.24-2.33l.22-.1a4.67,4.67,0,0,1,1.72-.34,4.8,4.8,0,0,1,1.52.26l.09,0a4.51,4.51,0,0,1,2.42,2.15c.05.09.09.19.14.29a4.56,4.56,0,0,1,.14,3.23C466.82,132,466.77,132.09,466.73,132.2Z" transform="translate(-79.19 -62.15)"/><path class="cls-7" d="M173,355.13l1.73,0a.36.36,0,0,0,.35-.37l0-2.51a.36.36,0,0,0-.36-.36l-1.79,0a7.22,7.22,0,0,0-1-2.25l1.27-1.34a.36.36,0,0,0,0-.51l-1.82-1.73a.35.35,0,0,0-.51,0l-1.32,1.39a7.22,7.22,0,0,0-2-.77v-2a.36.36,0,0,0-.36-.36h-2.51a.37.37,0,0,0-.37.36v2a7.17,7.17,0,0,0-2.23,1l-1.49-1.43a.37.37,0,0,0-.51,0l-1.74,1.82a.36.36,0,0,0,0,.51l1.48,1.42a7.19,7.19,0,0,0-.83,2.07l-2,0a.35.35,0,0,0-.35.37l0,2.51a.34.34,0,0,0,.36.35l2,0a7.3,7.3,0,0,0,.94,2.26L158.46,359a.36.36,0,0,0,0,.51l1.82,1.73a.35.35,0,0,0,.51,0l1.28-1.34a7.16,7.16,0,0,0,2.07.87v1.81a.37.37,0,0,0,.37.36H167a.36.36,0,0,0,.36-.36v-1.76a7.14,7.14,0,0,0,2.44-1l1.23,1.17a.37.37,0,0,0,.52,0l1.73-1.81a.35.35,0,0,0,0-.51l-1.23-1.18A7.08,7.08,0,0,0,173,355.13Zm-2.9.39a4.56,4.56,0,0,1-2.24,2.34l-.43.17a4.44,4.44,0,0,1-1.51.26,4.75,4.75,0,0,1-1.73-.33l-.16-.08a4.49,4.49,0,0,1-2.27-2.31,2,2,0,0,1-.11-.26,4.45,4.45,0,0,1-.27-1.56,4.4,4.4,0,0,1,.32-1.67l0-.1a4.58,4.58,0,0,1,2.24-2.33l.22-.1a4.76,4.76,0,0,1,1.73-.34,4.69,4.69,0,0,1,1.51.26l.09,0a4.48,4.48,0,0,1,2.42,2.15,2.59,2.59,0,0,1,.14.29,4.5,4.5,0,0,1,.38,1.8,4.81,4.81,0,0,1-.23,1.43C170.15,355.29,170.11,355.41,170.06,355.52Z" transform="translate(-79.19 -62.15)"/><path class="cls-7" d="M326.62,234.77l2.41,0a.5.5,0,0,0,.49-.51l0-3.49a.51.51,0,0,0-.51-.49l-2.49,0a10,10,0,0,0-1.45-3.13l1.78-1.87a.5.5,0,0,0,0-.71l-2.53-2.4a.5.5,0,0,0-.71,0l-1.84,1.94a9.91,9.91,0,0,0-2.82-1.07v-2.73a.5.5,0,0,0-.5-.5h-3.49a.51.51,0,0,0-.51.5v2.79a10.25,10.25,0,0,0-3.1,1.35l-2.07-2a.5.5,0,0,0-.71,0L306.09,225a.5.5,0,0,0,0,.71l2.07,2a9.89,9.89,0,0,0-1.16,2.87l-2.83,0a.52.52,0,0,0-.5.51l.06,3.5a.5.5,0,0,0,.51.49l2.75,0a9.89,9.89,0,0,0,1.3,3.14l-1.83,1.93a.5.5,0,0,0,0,.71l2.53,2.4a.5.5,0,0,0,.71,0l1.77-1.87a9.78,9.78,0,0,0,2.88,1.21v2.52a.51.51,0,0,0,.51.5h3.49a.5.5,0,0,0,.5-.5v-2.45a9.94,9.94,0,0,0,3.4-1.42l1.71,1.64a.5.5,0,0,0,.71,0l2.42-2.52a.5.5,0,0,0,0-.71L325.39,238A10,10,0,0,0,326.62,234.77Zm-4,.54a6.3,6.3,0,0,1-3.11,3.24,4,4,0,0,1-.6.25,6.34,6.34,0,0,1-4.5-.11l-.23-.1a6.28,6.28,0,0,1-3.15-3.21,2.75,2.75,0,0,1-.15-.36,6.27,6.27,0,0,1-.38-2.17,6.44,6.44,0,0,1,.44-2.33.69.69,0,0,0,0-.13,6.32,6.32,0,0,1,3.12-3.24l.3-.14a6.34,6.34,0,0,1,4.5-.11l.13,0a6.31,6.31,0,0,1,3.36,3c.07.13.14.26.2.4a6.37,6.37,0,0,1,.52,2.51,6.47,6.47,0,0,1-.32,2A4.68,4.68,0,0,1,322.59,235.31Z" transform="translate(-79.19 -62.15)"/></svg>