<svg xmlns="http://www.w3.org/2000/svg" xmlns:xlink="http://www.w3.org/1999/xlink" viewBox="0 0 169.26 146.34"><defs><style>.cls-1{mask:url(#mask);}.cls-2,.cls-7{mix-blend-mode:multiply;}.cls-2{fill:url(#radial-gradient);}.cls-3{isolation:isolate;}.cls-4{fill:#313231;}.cls-5{fill:#92278f;}.cls-6,.cls-7{fill-rule:evenodd;}.cls-6{fill:url(#New_Gradient_Swatch_copy_39);}.cls-7{fill:#929497;}.cls-8{mask:url(#mask-2);}.cls-9{fill:url(#radial-gradient-2);}.cls-10{filter:url(#luminosity-noclip-2);}.cls-11{filter:url(#luminosity-noclip);}</style><filter id="luminosity-noclip" x="198.38" y="-8442" width="105.59" height="32766" filterUnits="userSpaceOnUse" color-interpolation-filters="sRGB"><feFlood flood-color="#fff" result="bg"/><feBlend in="SourceGraphic" in2="bg"/></filter><mask id="mask" x="198.38" y="-8442" width="105.59" height="32766" maskUnits="userSpaceOnUse"><g class="cls-11"/></mask><radialGradient id="radial-gradient" cx="251.18" cy="110.4" r="52.81" gradientTransform="translate(0 264.97) scale(1 0.12)" gradientUnits="userSpaceOnUse"><stop offset="0" stop-color="#999"/><stop offset="0.13" stop-color="#8e8e8e"/><stop offset="0.35" stop-color="#727272"/><stop offset="0.63" stop-color="#444"/><stop offset="0.97" stop-color="#060606"/><stop offset="1"/></radialGradient><linearGradient id="New_Gradient_Swatch_copy_39" x1="196.44" y1="263.67" x2="297.9" y2="210.98" gradientUnits="userSpaceOnUse"><stop offset="0" stop-color="#db009b"/><stop offset="1" stop-color="#5153a2"/></linearGradient><filter id="luminosity-noclip-2" x="198.38" y="271.89" width="105.59" height="12.71" filterUnits="userSpaceOnUse" color-interpolation-filters="sRGB"><feFlood flood-color="#fff" result="bg"/><feBlend in="SourceGraphic" in2="bg"/></filter><mask id="mask-2" x="32.56" y="95.43" width="105.59" height="12.71" maskUnits="userSpaceOnUse"><g class="cls-10"><g transform="translate(-165.83 -176.46)"><g class="cls-1"><path class="cls-2" d="M304,278.25c0,3.5-23.64,6.35-52.79,6.35s-52.8-2.85-52.8-6.35,23.64-6.36,52.8-6.36S304,274.74,304,278.25Z"/></g></g></g></mask><radialGradient id="radial-gradient-2" cx="251.18" cy="110.4" r="52.81" gradientTransform="translate(0 264.97) scale(1 0.12)" gradientUnits="userSpaceOnUse"><stop offset="0" stop-color="#606263"/><stop offset="0.12" stop-color="#6b6c6d"/><stop offset="0.34" stop-color="#878889"/><stop offset="0.61" stop-color="#b5b5b6"/><stop offset="0.94" stop-color="#f3f4f4"/><stop offset="1" stop-color="#fff"/></radialGradient></defs><g class="cls-3"><g id="Camada_1" data-name="Camada 1"><path class="cls-4" d="M178.35,303.6l3.8,8h-3.53l-3.7-7.83h-5.56v7.83h-3.53V294.4a2.64,2.64,0,0,1,2.64-2.64h8.38a5.29,5.29,0,0,1,5.3,5.29v1.47A5.3,5.3,0,0,1,178.35,303.6Zm.27-6.33a2.65,2.65,0,0,0-2.65-2.65h-5.73a.88.88,0,0,0-.88.89V301H176a2.65,2.65,0,0,0,2.65-2.65Z" transform="translate(-165.83 -176.46)"/><path class="cls-4" d="M198.26,300.62v6.61a4.4,4.4,0,0,1-4.41,4.41h-4.41a4.4,4.4,0,0,1-4.41-4.41v-6.61a4.41,4.41,0,0,1,4.41-4.42h4.41A4.41,4.41,0,0,1,198.26,300.62Zm-3.53.66a2.2,2.2,0,0,0-2.2-2.21h-1.77a2.21,2.21,0,0,0-2.2,2.21v5.29a2.21,2.21,0,0,0,2.2,2.21h1.77a2.2,2.2,0,0,0,2.2-2.21Z" transform="translate(-165.83 -176.46)"/><path class="cls-4" d="M204.67,301.28v5.29a2.21,2.21,0,0,0,2.21,2.21h1.76a2.2,2.2,0,0,0,2-1.22,1.3,1.3,0,0,1,1.17-.7h2.6v.37a4.4,4.4,0,0,1-4.41,4.41h-4.41a4.41,4.41,0,0,1-4.42-4.41v-6.61a4.42,4.42,0,0,1,4.42-4.42H210a4.42,4.42,0,0,1,4.41,4.42V301h-2.6a1.31,1.31,0,0,1-1.17-.69,2.2,2.2,0,0,0-2-1.22h-1.76A2.21,2.21,0,0,0,204.67,301.28Z" transform="translate(-165.83 -176.46)"/><path class="cls-4" d="M230.05,311.64H225.5l-4-4a.44.44,0,0,0-.75.31v3.65h-3.53V291.8h2.21a1.32,1.32,0,0,1,1.32,1.32v7.8l4.71-4.72h4.55l-7.72,7.72Z" transform="translate(-165.83 -176.46)"/><path class="cls-4" d="M244,300.62v4.44h-8.39a1.32,1.32,0,0,0-1.32,1.33v.18a2.21,2.21,0,0,0,2.21,2.21h1.76a2.21,2.21,0,0,0,2-1.22,1.29,1.29,0,0,1,1.16-.7H244v.37a4.41,4.41,0,0,1-4.42,4.41H235.2a4.41,4.41,0,0,1-4.41-4.41v-6.61a4.42,4.42,0,0,1,4.41-4.42h4.41A4.42,4.42,0,0,1,244,300.62Zm-3.53,2v-1.31a2.21,2.21,0,0,0-2.21-2.21h-1.76a2.21,2.21,0,0,0-2.21,2.21v2.63a1.32,1.32,0,0,1,1.32-1.32Z" transform="translate(-165.83 -176.46)"/><path class="cls-4" d="M252.71,299.07h-2.27v7.5a2.2,2.2,0,0,0,2.2,2.21H254v2.86h-2.71a4.4,4.4,0,0,1-4.41-4.41V291.8h2.2a1.33,1.33,0,0,1,1.33,1.32v3.08H254v1.55A1.33,1.33,0,0,1,252.71,299.07Z" transform="translate(-165.83 -176.46)"/><path class="cls-4" d="M280.31,305.5v.85a5.29,5.29,0,0,1-5.29,5.29h-5.73a5.29,5.29,0,0,1-5.3-5.29v-9.26a5.3,5.3,0,0,1,5.3-5.3H275a5.29,5.29,0,0,1,5.29,5.3v.85h-2a1.72,1.72,0,0,1-1.65-1.33,2.52,2.52,0,0,0-.56-1.05,2.66,2.66,0,0,0-2-.9h-4a2.65,2.65,0,0,0-2.65,2.65v8.82a2.65,2.65,0,0,0,2.65,2.65h4a2.65,2.65,0,0,0,2-.88,2.51,2.51,0,0,0,.59-1.09,1.78,1.78,0,0,1,1.75-1.31Z" transform="translate(-165.83 -176.46)"/><path class="cls-4" d="M286.72,311.64h-3.53V291.8h2.21a1.32,1.32,0,0,1,1.32,1.32Z" transform="translate(-165.83 -176.46)"/><path class="cls-4" d="M302.85,300.62v6.61a4.4,4.4,0,0,1-4.41,4.41H294a4.41,4.41,0,0,1-4.41-4.41v-6.61A4.42,4.42,0,0,1,294,296.2h4.41A4.41,4.41,0,0,1,302.85,300.62Zm-3.53.66a2.2,2.2,0,0,0-2.2-2.21h-1.77a2.21,2.21,0,0,0-2.2,2.21v5.29a2.21,2.21,0,0,0,2.2,2.21h1.77a2.2,2.2,0,0,0,2.2-2.21Z" transform="translate(-165.83 -176.46)"/><path class="cls-4" d="M305.74,307.23v-11h2.2a1.33,1.33,0,0,1,1.32,1.33v9a2.21,2.21,0,0,0,2.21,2.21h1.76a2.21,2.21,0,0,0,2.21-2.21V296.2H319v11a4.41,4.41,0,0,1-4.41,4.41h-4.41A4.4,4.4,0,0,1,305.74,307.23Z" transform="translate(-165.83 -176.46)"/><path class="cls-4" d="M326.26,296.2h4a1.33,1.33,0,0,0,1.33-1.32V291.8h2.2a1.32,1.32,0,0,1,1.32,1.32v14.11a4.4,4.4,0,0,1-4.41,4.41h-4.41a4.41,4.41,0,0,1-4.41-4.41v-6.62A4.42,4.42,0,0,1,326.26,296.2Zm-.88,10.37a2.21,2.21,0,0,0,2.21,2.21h1.76a2.21,2.21,0,0,0,2.21-2.21v-8.82a1.33,1.33,0,0,1-1.33,1.32h-2.64a2.21,2.21,0,0,0-2.21,2.21Z" transform="translate(-165.83 -176.46)"/><path class="cls-5" d="M189.65,316.83h-1.56v4.23h-1.23v-4.23h-1.55v-.95h4.34Z" transform="translate(-165.83 -176.46)"/><path class="cls-5" d="M194.32,319.54h-2.55c0,.53.4.8,1.07.8a2.18,2.18,0,0,0,1.13-.28v.82a3.15,3.15,0,0,1-1.4.27,2.06,2.06,0,0,1-1.47-.49,1.83,1.83,0,0,1-.52-1.39,1.89,1.89,0,0,1,1.95-2,1.75,1.75,0,0,1,1.32.48,1.81,1.81,0,0,1,.47,1.31Zm-1.12-.7c0-.54-.23-.8-.68-.8a.67.67,0,0,0-.5.23,1,1,0,0,0-.26.57Z" transform="translate(-165.83 -176.46)"/><path class="cls-5" d="M199.23,320.93a2.46,2.46,0,0,1-1.17.22,2.08,2.08,0,0,1-1.46-.51,1.75,1.75,0,0,1-.55-1.34,2,2,0,0,1,.59-1.49,2.3,2.3,0,0,1,1.6-.54,2.17,2.17,0,0,1,1,.17v1a1.4,1.4,0,0,0-.84-.27,1.16,1.16,0,0,0-.82.29,1.19,1.19,0,0,0,0,1.57,1.08,1.08,0,0,0,.79.28,1.62,1.62,0,0,0,.88-.27Z" transform="translate(-165.83 -176.46)"/><path class="cls-5" d="M205,321.06h-1.2V319c0-.54-.21-.82-.62-.82a.65.65,0,0,0-.52.23.87.87,0,0,0-.2.58v2.11h-1.2v-5.48h1.2v2.33h0a1.37,1.37,0,0,1,1.2-.64c.88,0,1.32.51,1.32,1.52Z" transform="translate(-165.83 -176.46)"/><path class="cls-5" d="M211,321.06h-1.2V319c0-.58-.22-.87-.65-.87a.65.65,0,0,0-.51.23.82.82,0,0,0-.2.58v2.11h-1.21v-3.7h1.21V318h0a1.39,1.39,0,0,1,1.25-.68c.87,0,1.3.51,1.3,1.53Z" transform="translate(-165.83 -176.46)"/><path class="cls-5" d="M215,321.15a2.22,2.22,0,0,1-1.54-.51,2.09,2.09,0,0,1,0-2.85,2.26,2.26,0,0,1,1.57-.52,2.11,2.11,0,0,1,1.52.52,1.77,1.77,0,0,1,.55,1.37,1.94,1.94,0,0,1-.56,1.46A2.17,2.17,0,0,1,215,321.15Zm0-3a.85.85,0,0,0-.67.28,1.24,1.24,0,0,0-.23.79c0,.71.3,1.07.9,1.07s.87-.37.87-1.1S215.65,318.14,215.07,318.14Z" transform="translate(-165.83 -176.46)"/><path class="cls-5" d="M220.36,319.81a.46.46,0,0,0,.12.35.37.37,0,0,0,.31.13l.2,0,.2,0v.8a3.4,3.4,0,0,1-.46.09,2.78,2.78,0,0,1-.51,0,1.18,1.18,0,0,1-.43-.08,1,1,0,0,1-.34-.22,1,1,0,0,1-.21-.34,1.34,1.34,0,0,1-.08-.46v-4.48h1.2Z" transform="translate(-165.83 -176.46)"/><path class="cls-5" d="M224.8,321.15a2.18,2.18,0,0,1-1.53-.51,1.85,1.85,0,0,1-.56-1.41,1.81,1.81,0,0,1,.58-1.44,2.23,2.23,0,0,1,1.56-.52,2.13,2.13,0,0,1,1.53.52,1.81,1.81,0,0,1,.55,1.37,1.91,1.91,0,0,1-.57,1.46A2.17,2.17,0,0,1,224.8,321.15Zm0-3a.84.84,0,0,0-.66.28,1.18,1.18,0,0,0-.24.79c0,.71.3,1.07.91,1.07s.86-.37.86-1.1S225.41,318.14,224.83,318.14Z" transform="translate(-165.83 -176.46)"/><path class="cls-5" d="M232.78,320.64a2,2,0,0,1-.63,1.6,2.61,2.61,0,0,1-1.82.56,3.09,3.09,0,0,1-1.25-.21v-1a2.52,2.52,0,0,0,1.22.33,1.36,1.36,0,0,0,.94-.3,1.06,1.06,0,0,0,.34-.83v-.3h0a1.34,1.34,0,0,1-1.21.62,1.48,1.48,0,0,1-1.19-.5,1.94,1.94,0,0,1-.44-1.33,2.22,2.22,0,0,1,.49-1.5,1.63,1.63,0,0,1,1.29-.55,1.18,1.18,0,0,1,1.06.52h0v-.43h1.2Zm-1.19-1.36V319a.87.87,0,0,0-.22-.6.73.73,0,0,0-.57-.25.74.74,0,0,0-.62.3,1.31,1.31,0,0,0-.23.84,1.15,1.15,0,0,0,.21.73.8.8,0,0,0,1.2,0A1.08,1.08,0,0,0,231.59,319.28Z" transform="translate(-165.83 -176.46)"/><path class="cls-5" d="M238.75,317.36l-1.59,4c-.38,1-.95,1.44-1.72,1.44a2.43,2.43,0,0,1-.72-.09v-.91a1,1,0,0,0,.52.13.66.66,0,0,0,.65-.41l.2-.46-1.58-3.7h1.33l.73,2.25a2.88,2.88,0,0,1,.11.5h0c0-.14.07-.3.13-.49l.73-2.26Z" transform="translate(-165.83 -176.46)"/><path class="cls-5" d="M244,321.06v-5.18h1.93q2.91,0,2.91,2.52a2.49,2.49,0,0,1-.79,1.94,3,3,0,0,1-2.12.72Zm1.23-4.23v3.29h.61a1.7,1.7,0,0,0,1.25-.46,1.65,1.65,0,0,0,.46-1.24,1.54,1.54,0,0,0-.45-1.17,1.8,1.8,0,0,0-1.27-.42Z" transform="translate(-165.83 -176.46)"/><path class="cls-5" d="M251.44,316.77a.71.71,0,0,1-.5-.17.56.56,0,0,1,0-.84.75.75,0,0,1,.5-.16.73.73,0,0,1,.5.16.52.52,0,0,1,.19.42.54.54,0,0,1-.19.43A.73.73,0,0,1,251.44,316.77Zm.58,3a.46.46,0,0,0,.12.35.41.41,0,0,0,.32.13l.2,0,.19,0v.8a2.88,2.88,0,0,1-.46.09,2.67,2.67,0,0,1-.5,0,1.23,1.23,0,0,1-.44-.08.83.83,0,0,1-.33-.22,1,1,0,0,1-.22-.34,1.35,1.35,0,0,1-.07-.46v-2.7H252Z" transform="translate(-165.83 -176.46)"/><path class="cls-5" d="M258.43,320.64a2,2,0,0,1-.63,1.6,2.61,2.61,0,0,1-1.82.56,3.09,3.09,0,0,1-1.25-.21v-1A2.52,2.52,0,0,0,256,322a1.36,1.36,0,0,0,.94-.3,1.06,1.06,0,0,0,.34-.83v-.3h0a1.34,1.34,0,0,1-1.21.62,1.49,1.49,0,0,1-1.19-.5,1.94,1.94,0,0,1-.43-1.33,2.21,2.21,0,0,1,.48-1.5,1.64,1.64,0,0,1,1.29-.55,1.18,1.18,0,0,1,1.06.52h0v-.43h1.2Zm-1.19-1.36V319a.87.87,0,0,0-.22-.6.73.73,0,0,0-.57-.25.74.74,0,0,0-.62.3,1.31,1.31,0,0,0-.23.84,1.15,1.15,0,0,0,.21.73.8.8,0,0,0,1.2,0A1.08,1.08,0,0,0,257.24,319.28Z" transform="translate(-165.83 -176.46)"/><path class="cls-5" d="M261.27,316.77a.69.69,0,0,1-.5-.17.54.54,0,0,1,0-.84.73.73,0,0,1,.5-.16.75.75,0,0,1,.5.16.55.55,0,0,1,.19.42.57.57,0,0,1-.19.43A.75.75,0,0,1,261.27,316.77Zm.58,3a.46.46,0,0,0,.12.35.39.39,0,0,0,.31.13l.2,0,.2,0v.8a3.4,3.4,0,0,1-.46.09,2.78,2.78,0,0,1-.51,0,1.22,1.22,0,0,1-.43-.08,1,1,0,0,1-.34-.22,1,1,0,0,1-.21-.34,1.34,1.34,0,0,1-.08-.46v-2.7h1.2Z" transform="translate(-165.83 -176.46)"/><path class="cls-5" d="M266.79,321a1.87,1.87,0,0,1-.8.13,1.12,1.12,0,0,1-1.28-1.25v-1.7h-.63v-.84h.63v-.8l1.2-.33v1.13h.88v.84h-.88v1.5c0,.39.17.58.49.58a.86.86,0,0,0,.39-.11Z" transform="translate(-165.83 -176.46)"/><path class="cls-5" d="M272,321.06h-1.14v-.53h0a1.44,1.44,0,0,1-2.06.32,1.06,1.06,0,0,1-.32-.82c0-.72.44-1.13,1.34-1.24l1.06-.14q0-.6-.69-.6a2.48,2.48,0,0,0-1.33.39v-.86a3.76,3.76,0,0,1,.69-.22,3.9,3.9,0,0,1,.79-.09c1.11,0,1.67.53,1.67,1.58Zm-1.13-1.5v-.25l-.71.09c-.39,0-.59.21-.59.5a.39.39,0,0,0,.15.32.56.56,0,0,0,.38.12.75.75,0,0,0,.56-.22A.78.78,0,0,0,270.83,319.56Z" transform="translate(-165.83 -176.46)"/><path class="cls-5" d="M275.32,319.81a.46.46,0,0,0,.12.35.41.41,0,0,0,.32.13l.2,0,.19,0v.8a3,3,0,0,1-.45.09,2.85,2.85,0,0,1-.51,0,1.27,1.27,0,0,1-.44-.08.83.83,0,0,1-.33-.22,1.17,1.17,0,0,1-.22-.34,1.35,1.35,0,0,1-.07-.46v-4.48h1.19Z" transform="translate(-165.83 -176.46)"/><path class="cls-5" d="M281.16,320.87v-1.16a2.29,2.29,0,0,0,.72.39,2.2,2.2,0,0,0,1.19.1,1.6,1.6,0,0,0,.29-.11.55.55,0,0,0,.17-.17.37.37,0,0,0,.06-.21.44.44,0,0,0-.09-.27,1.09,1.09,0,0,0-.25-.22,3.29,3.29,0,0,0-.38-.2l-.47-.19a2.38,2.38,0,0,1-.95-.62,1.28,1.28,0,0,1-.31-.88,1.32,1.32,0,0,1,.17-.7,1.5,1.5,0,0,1,.46-.48,2.37,2.37,0,0,1,.69-.27,3.62,3.62,0,0,1,.82-.09,4.4,4.4,0,0,1,.76,0,2.63,2.63,0,0,1,.6.15v1.08a2.11,2.11,0,0,0-.3-.16,1.6,1.6,0,0,0-.33-.11,2.05,2.05,0,0,0-.34-.07,1.77,1.77,0,0,0-.32,0,1.48,1.48,0,0,0-.38,0,1,1,0,0,0-.29.1.49.49,0,0,0-.18.17.31.31,0,0,0-.07.21.4.4,0,0,0,.07.24.78.78,0,0,0,.21.19l.32.18.43.18a4.66,4.66,0,0,1,.59.28,2.28,2.28,0,0,1,.45.33,1.31,1.31,0,0,1,.38,1,1.39,1.39,0,0,1-.17.73,1.41,1.41,0,0,1-.47.47,2.12,2.12,0,0,1-.69.27,4.43,4.43,0,0,1-.83.07,4.76,4.76,0,0,1-.86-.07A3,3,0,0,1,281.16,320.87Z" transform="translate(-165.83 -176.46)"/><path class="cls-5" d="M290.41,319.54h-2.54c0,.53.4.8,1.07.8a2.18,2.18,0,0,0,1.13-.28v.82a3.15,3.15,0,0,1-1.4.27,2.06,2.06,0,0,1-1.47-.49,1.83,1.83,0,0,1-.52-1.39,1.89,1.89,0,0,1,1.95-2,1.75,1.75,0,0,1,1.32.48,1.81,1.81,0,0,1,.46,1.31Zm-1.11-.7c0-.54-.23-.8-.68-.8a.67.67,0,0,0-.5.23,1,1,0,0,0-.26.57Z" transform="translate(-165.83 -176.46)"/><path class="cls-5" d="M294.92,318.39a1,1,0,0,0-.5-.11.75.75,0,0,0-.62.27,1.13,1.13,0,0,0-.22.74v1.77h-1.2v-3.7h1.2v.69h0a1,1,0,0,1,1-.76.78.78,0,0,1,.3,0Z" transform="translate(-165.83 -176.46)"/><path class="cls-5" d="M300.75,317.36l-1.45,3.7h-1.37l-1.38-3.7h1.29l.67,2.28a2.9,2.9,0,0,1,.14.66h0a4.78,4.78,0,0,1,.14-.64l.7-2.3Z" transform="translate(-165.83 -176.46)"/><path class="cls-5" d="M303.1,316.77a.71.71,0,0,1-.5-.17.56.56,0,0,1,0-.84.86.86,0,0,1,1,0,.52.52,0,0,1,.19.42.54.54,0,0,1-.19.43A.75.75,0,0,1,303.1,316.77Zm.58,3a.46.46,0,0,0,.12.35.39.39,0,0,0,.32.13l.19,0,.2,0v.8a3.12,3.12,0,0,1-.46.09,2.74,2.74,0,0,1-.5,0,1.23,1.23,0,0,1-.44-.08.83.83,0,0,1-.33-.22.87.87,0,0,1-.22-.34,1.35,1.35,0,0,1-.07-.46v-2.7h1.19Z" transform="translate(-165.83 -176.46)"/><path class="cls-5" d="M309.22,320.93a2.48,2.48,0,0,1-1.18.22,2.05,2.05,0,0,1-1.45-.51,1.76,1.76,0,0,1-.56-1.34,1.92,1.92,0,0,1,.6-1.49,2.29,2.29,0,0,1,1.59-.54,2.25,2.25,0,0,1,1,.17v1a1.4,1.4,0,0,0-.84-.27,1.14,1.14,0,0,0-.82.29,1.06,1.06,0,0,0-.31.8,1,1,0,0,0,.29.77,1.1,1.1,0,0,0,.8.28,1.64,1.64,0,0,0,.88-.27Z" transform="translate(-165.83 -176.46)"/><path class="cls-5" d="M314.76,319.54h-2.54c0,.53.39.8,1.07.8a2.23,2.23,0,0,0,1.13-.28v.82a3.16,3.16,0,0,1-1.41.27,2,2,0,0,1-1.46-.49,1.83,1.83,0,0,1-.53-1.39,1.9,1.9,0,0,1,2-2,1.75,1.75,0,0,1,1.32.48,1.81,1.81,0,0,1,.47,1.31Zm-1.12-.7c0-.54-.22-.8-.67-.8a.69.69,0,0,0-.51.23,1,1,0,0,0-.25.57Z" transform="translate(-165.83 -176.46)"/><g id="D1"><path class="cls-6" d="M303,187.94l4.86.45c4.93-5.83,13-10.75,24-11.93-1.18,10.95-6.11,19-12,23.93l.46,4.85-9.28,9.24-.78-8.91.13-.13A18.83,18.83,0,0,1,306,206c-9.41,6.42-35.18,30-42.09,43.46a6.26,6.26,0,0,0-3.42-.2c4.47-.13,7.24,3.87,7.24,8.2a10.7,10.7,0,0,1-.33,2.55h21.24a22.89,22.89,0,0,0,16.24-6.68,22.23,22.23,0,0,0-4.28-35.4l4.87-5.25c14.14,9.77,18.41,31.41,4.27,45.5a29.87,29.87,0,0,1-21.1,8.72H212.35a26.69,26.69,0,0,1-5.13-52.9A29.7,29.7,0,0,1,236,192a29.18,29.18,0,0,1,11.64,2.36,29.69,29.69,0,0,1,37.8,13.37l.27-.06c1.05-.07,2-.13,3-.13h.85l-8.42,7.14c-4.27-9.63-10.85-15.86-21.89-15.86a22.94,22.94,0,0,0-21.83,15.8c3.68,1.11,8.55,3.86,12.49,10.42-8.94-6.69-21.63-6.36-29.06,1.83a19.74,19.74,0,0,0-4.41,7.94,8.53,8.53,0,0,1,4.6,2c5-7.14,17.3-2.62,15.72,5.77a6.47,6.47,0,0,0,.46-3.87,8.55,8.55,0,0,1,5.26-1.57,10.48,10.48,0,0,1,7.69,4.07c18.15-4.92,39.72-26.36,52.15-38.94a21,21,0,0,1,.52-4.4l-.06.14-8.94-.79Zm-40.64,70.53a5.25,5.25,0,0,0-3.16-4.26,3.8,3.8,0,0,1,3.16,4.26Zm-16.7-3.67a8.16,8.16,0,0,0-5-6.75,6,6,0,0,1,5,6.75Zm8.81,0c-.26-3-3.49-6.56-6.25-7.6,3.16.39,6.78,4.45,6.25,7.6Zm-17.82-6.69a5.13,5.13,0,0,0-3.16-4.26,3.81,3.81,0,0,1,3.16,4.26Zm6,12.2a5.05,5.05,0,0,0-3.09-4.26,3.7,3.7,0,0,1,3.09,4.26Zm-19.85-11.48a8.11,8.11,0,0,0-5-6.75,6,6,0,0,1,5,6.75Zm11,11.21a8.15,8.15,0,0,0-5-6.81,6,6,0,0,1,5,6.81ZM230,248a8.16,8.16,0,0,0-5-6.75,6,6,0,0,1,5,6.75Zm92.45-62.08a3.53,3.53,0,0,0-4.93,0,3.48,3.48,0,0,0,4.93,4.92,3.55,3.55,0,0,0,0-4.92Z" transform="translate(-165.83 -176.46)"/><path class="cls-7" d="M227.08,210.55a33.88,33.88,0,0,1,14.73-18,30.62,30.62,0,0,1,5.79,1.77A29.71,29.71,0,0,0,230.37,214a26.65,26.65,0,0,0-14.67,8.32,26.07,26.07,0,0,0-6.24,12h0s-2.17-14.23,17.62-23.8Z" transform="translate(-165.83 -176.46)"/><g class="cls-8"><path class="cls-9" d="M304,278.25c0,3.5-23.64,6.35-52.79,6.35s-52.8-2.85-52.8-6.35,23.64-6.36,52.8-6.36S304,274.74,304,278.25Z" transform="translate(-165.83 -176.46)"/></g></g></g></g></svg>